<mxfile host="app.diagrams.net" modified="2024-02-14T04:39:50.262Z" agent="Mozilla/5.0 (Windows NT 10.0; Win64; x64) AppleWebKit/537.36 (KHTML, like Gecko) Chrome/119.0.0.0 Safari/537.36" etag="S57WnXxT5bgC8ozZmtV7" version="23.1.4" type="github">
  <diagram name="第 1 页" id="QFo4rpMajQ0m4gN3oKNT">
    <mxGraphModel dx="398" dy="265" grid="1" gridSize="10" guides="1" tooltips="1" connect="1" arrows="1" fold="1" page="1" pageScale="1" pageWidth="827" pageHeight="1169" math="0" shadow="0">
      <root>
        <mxCell id="0" />
        <mxCell id="1" parent="0" />
        <mxCell id="Tfmw1DpFzd8yZ36O808D-2" value="" style="whiteSpace=wrap;html=1;strokeColor=#DBDBDB;fillColor=#518CC9;fontSize=10;fontFamily=Times New Roman;" vertex="1" parent="1">
          <mxGeometry x="240" y="350" width="30" height="25" as="geometry" />
        </mxCell>
        <mxCell id="Tfmw1DpFzd8yZ36O808D-3" value="" style="whiteSpace=wrap;html=1;fillColor=#E7F2FD;strokeColor=#DBDBDB;fontSize=10;fontFamily=Times New Roman;" vertex="1" parent="1">
          <mxGeometry x="270" y="350" width="30" height="25" as="geometry" />
        </mxCell>
        <mxCell id="Tfmw1DpFzd8yZ36O808D-4" value="" style="whiteSpace=wrap;html=1;strokeColor=#DBDBDB;fillColor=#CCE5FF;fontSize=10;fontFamily=Times New Roman;" vertex="1" parent="1">
          <mxGeometry x="300" y="350" width="30" height="25" as="geometry" />
        </mxCell>
        <mxCell id="Tfmw1DpFzd8yZ36O808D-5" value="" style="whiteSpace=wrap;html=1;fillColor=#E7F2FD;strokeColor=#DBDBDB;fontSize=10;fontFamily=Times New Roman;" vertex="1" parent="1">
          <mxGeometry x="330" y="350" width="30" height="25" as="geometry" />
        </mxCell>
        <mxCell id="Tfmw1DpFzd8yZ36O808D-6" value="" style="whiteSpace=wrap;html=1;strokeColor=#DBDBDB;fillColor=#E7F2FD;fontSize=10;fontFamily=Times New Roman;" vertex="1" parent="1">
          <mxGeometry x="360" y="350" width="30" height="25" as="geometry" />
        </mxCell>
        <mxCell id="Tfmw1DpFzd8yZ36O808D-7" value="" style="whiteSpace=wrap;html=1;fillColor=#cce5ff;strokeColor=#DBDBDB;fontSize=10;fontFamily=Times New Roman;" vertex="1" parent="1">
          <mxGeometry x="390" y="350" width="30" height="25" as="geometry" />
        </mxCell>
        <mxCell id="Tfmw1DpFzd8yZ36O808D-8" value="" style="whiteSpace=wrap;html=1;strokeColor=#DBDBDB;fillColor=#82BBF8;fontSize=10;fontFamily=Times New Roman;" vertex="1" parent="1">
          <mxGeometry x="420" y="350" width="30" height="25" as="geometry" />
        </mxCell>
        <mxCell id="Tfmw1DpFzd8yZ36O808D-9" value="" style="whiteSpace=wrap;html=1;fillColor=#E7F2FD;strokeColor=#DBDBDB;fontSize=10;fontFamily=Times New Roman;" vertex="1" parent="1">
          <mxGeometry x="450" y="350" width="30" height="25" as="geometry" />
        </mxCell>
        <mxCell id="Tfmw1DpFzd8yZ36O808D-10" value="" style="whiteSpace=wrap;html=1;strokeColor=#DBDBDB;fillColor=#82BBF8;fontSize=10;fontFamily=Times New Roman;" vertex="1" parent="1">
          <mxGeometry x="480" y="350" width="30" height="25" as="geometry" />
        </mxCell>
        <mxCell id="Tfmw1DpFzd8yZ36O808D-12" value="" style="whiteSpace=wrap;html=1;strokeColor=#DBDBDB;fillColor=#518CC9;fontSize=10;fontFamily=Times New Roman;" vertex="1" parent="1">
          <mxGeometry x="240" y="375" width="30" height="25" as="geometry" />
        </mxCell>
        <mxCell id="Tfmw1DpFzd8yZ36O808D-13" value="" style="whiteSpace=wrap;html=1;fillColor=#E7F2FD;strokeColor=#DBDBDB;fontSize=10;fontFamily=Times New Roman;" vertex="1" parent="1">
          <mxGeometry x="270" y="375" width="30" height="25" as="geometry" />
        </mxCell>
        <mxCell id="Tfmw1DpFzd8yZ36O808D-14" value="" style="whiteSpace=wrap;html=1;strokeColor=#DBDBDB;fillColor=#CCE5FF;fontSize=10;fontFamily=Times New Roman;" vertex="1" parent="1">
          <mxGeometry x="300" y="375" width="30" height="25" as="geometry" />
        </mxCell>
        <mxCell id="Tfmw1DpFzd8yZ36O808D-15" value="" style="whiteSpace=wrap;html=1;fillColor=#E7F2FD;strokeColor=#DBDBDB;fontSize=10;fontFamily=Times New Roman;" vertex="1" parent="1">
          <mxGeometry x="330" y="375" width="30" height="25" as="geometry" />
        </mxCell>
        <mxCell id="Tfmw1DpFzd8yZ36O808D-16" value="" style="whiteSpace=wrap;html=1;strokeColor=#DBDBDB;fillColor=#E7F2FD;fontSize=10;fontFamily=Times New Roman;" vertex="1" parent="1">
          <mxGeometry x="360" y="375" width="30" height="25" as="geometry" />
        </mxCell>
        <mxCell id="Tfmw1DpFzd8yZ36O808D-17" value="" style="whiteSpace=wrap;html=1;fillColor=#cce5ff;strokeColor=#DBDBDB;fontSize=10;fontFamily=Times New Roman;" vertex="1" parent="1">
          <mxGeometry x="390" y="375" width="30" height="25" as="geometry" />
        </mxCell>
        <mxCell id="Tfmw1DpFzd8yZ36O808D-18" value="" style="whiteSpace=wrap;html=1;strokeColor=#DBDBDB;fillColor=#82BBF8;fontSize=10;fontFamily=Times New Roman;" vertex="1" parent="1">
          <mxGeometry x="420" y="375" width="30" height="25" as="geometry" />
        </mxCell>
        <mxCell id="Tfmw1DpFzd8yZ36O808D-19" value="" style="whiteSpace=wrap;html=1;fillColor=#E7F2FD;strokeColor=#DBDBDB;fontSize=10;fontFamily=Times New Roman;" vertex="1" parent="1">
          <mxGeometry x="450" y="375" width="30" height="25" as="geometry" />
        </mxCell>
        <mxCell id="Tfmw1DpFzd8yZ36O808D-20" value="" style="whiteSpace=wrap;html=1;strokeColor=#DBDBDB;fillColor=#82BBF8;fontSize=10;fontFamily=Times New Roman;" vertex="1" parent="1">
          <mxGeometry x="480" y="375" width="30" height="25" as="geometry" />
        </mxCell>
        <mxCell id="Tfmw1DpFzd8yZ36O808D-22" value="food" style="text;html=1;align=left;verticalAlign=middle;resizable=0;points=[];autosize=1;strokeColor=none;fillColor=none;fontSize=10;" vertex="1" parent="1">
          <mxGeometry x="200" y="347.5" width="40" height="30" as="geometry" />
        </mxCell>
        <mxCell id="Tfmw1DpFzd8yZ36O808D-23" value="service" style="text;html=1;align=left;verticalAlign=middle;resizable=0;points=[];autosize=1;strokeColor=none;fillColor=none;fontSize=10;" vertex="1" parent="1">
          <mxGeometry x="200" y="372.5" width="60" height="30" as="geometry" />
        </mxCell>
        <mxCell id="Tfmw1DpFzd8yZ36O808D-24" value="The" style="text;html=1;align=center;verticalAlign=middle;resizable=0;points=[];autosize=1;strokeColor=none;fillColor=none;fontSize=10;" vertex="1" parent="1">
          <mxGeometry x="235" y="400" width="40" height="30" as="geometry" />
        </mxCell>
        <mxCell id="Tfmw1DpFzd8yZ36O808D-25" value="food" style="text;html=1;align=left;verticalAlign=middle;resizable=0;points=[];autosize=1;strokeColor=none;fillColor=none;fontSize=10;" vertex="1" parent="1">
          <mxGeometry x="200" y="347.5" width="40" height="30" as="geometry" />
        </mxCell>
        <mxCell id="Tfmw1DpFzd8yZ36O808D-26" value="food" style="text;html=1;align=center;verticalAlign=middle;resizable=0;points=[];autosize=1;strokeColor=none;fillColor=none;fontSize=10;" vertex="1" parent="1">
          <mxGeometry x="265" y="400" width="40" height="30" as="geometry" />
        </mxCell>
        <mxCell id="Tfmw1DpFzd8yZ36O808D-27" value="is" style="text;html=1;align=center;verticalAlign=middle;resizable=0;points=[];autosize=1;strokeColor=none;fillColor=none;fontSize=10;" vertex="1" parent="1">
          <mxGeometry x="300" y="400" width="30" height="30" as="geometry" />
        </mxCell>
        <mxCell id="Tfmw1DpFzd8yZ36O808D-28" value="great" style="text;html=1;align=center;verticalAlign=middle;resizable=0;points=[];autosize=1;strokeColor=none;fillColor=none;fontSize=10;" vertex="1" parent="1">
          <mxGeometry x="320" y="400" width="50" height="30" as="geometry" />
        </mxCell>
        <mxCell id="Tfmw1DpFzd8yZ36O808D-29" value="," style="text;html=1;align=center;verticalAlign=middle;resizable=0;points=[];autosize=1;strokeColor=none;fillColor=none;fontSize=10;" vertex="1" parent="1">
          <mxGeometry x="360" y="400" width="30" height="30" as="geometry" />
        </mxCell>
        <mxCell id="Tfmw1DpFzd8yZ36O808D-30" value="service" style="text;html=1;align=center;verticalAlign=middle;resizable=0;points=[];autosize=1;strokeColor=none;fillColor=none;fontSize=10;" vertex="1" parent="1">
          <mxGeometry x="375" y="400" width="60" height="30" as="geometry" />
        </mxCell>
        <mxCell id="Tfmw1DpFzd8yZ36O808D-31" value="is" style="text;html=1;align=center;verticalAlign=middle;resizable=0;points=[];autosize=1;strokeColor=none;fillColor=none;fontSize=10;" vertex="1" parent="1">
          <mxGeometry x="420" y="400" width="30" height="30" as="geometry" />
        </mxCell>
        <mxCell id="Tfmw1DpFzd8yZ36O808D-32" value="ok" style="text;html=1;align=center;verticalAlign=middle;resizable=0;points=[];autosize=1;strokeColor=none;fillColor=none;fontSize=10;" vertex="1" parent="1">
          <mxGeometry x="450" y="400" width="30" height="30" as="geometry" />
        </mxCell>
        <mxCell id="Tfmw1DpFzd8yZ36O808D-33" value="." style="text;html=1;align=center;verticalAlign=middle;resizable=0;points=[];autosize=1;strokeColor=none;fillColor=none;fontSize=10;" vertex="1" parent="1">
          <mxGeometry x="480" y="400" width="30" height="30" as="geometry" />
        </mxCell>
      </root>
    </mxGraphModel>
  </diagram>
</mxfile>
